<?xml version="1.0" standalone="no"?>
<!DOCTYPE svg PUBLIC "-//W3C//DTD SVG 20010904//EN"
 "http://www.w3.org/TR/2001/REC-SVG-20010904/DTD/svg10.dtd">
<svg version="1.0" xmlns="http://www.w3.org/2000/svg"
 width="1200.000000pt" height="1200.000000pt" viewBox="0 0 1200.000000 1200.000000"
 preserveAspectRatio="xMidYMid meet">

<g transform="translate(0.000000,1200.000000) scale(0.100000,-0.100000)"
fill="#000000" stroke="none">
<path d="M4693 7700 c-48 -11 -119 -56 -147 -93 -53 -69 -59 -99 -60 -284 -1
-94 2 -174 5 -177 3 -4 36 8 72 25 36 17 103 38 148 47 76 15 90 15 177 0 248
-42 431 -220 478 -463 30 -157 -6 -307 -107 -442 -22 -29 -39 -56 -39 -60 1
-4 32 -30 71 -57 94 -66 216 -196 268 -284 54 -90 99 -229 115 -352 l12 -95
559 -5 c308 -3 585 -2 615 3 103 17 179 77 216 173 18 47 19 90 19 954 l0 905
-28 57 c-34 70 -78 110 -152 137 -55 21 -62 21 -1123 20 -587 -1 -1081 -4
-1099 -9z m1902 -225 c32 -71 61 -134 65 -139 6 -6 196 -33 330 -46 3 0 -49
-54 -115 -120 l-120 -120 23 -156 c12 -86 21 -158 19 -161 -2 -2 -68 30 -145
71 l-141 75 -146 -76 c-80 -41 -148 -74 -150 -72 -1 2 10 76 27 163 l30 159
-118 118 c-135 135 -140 119 46 144 63 9 128 18 143 21 24 5 36 23 88 127 77
152 90 173 100 155 4 -7 33 -71 64 -143z"/>
<path d="M7655 7249 c-159 -60 -332 -125 -383 -145 l-92 -36 2 -486 3 -487
378 -142 c208 -78 393 -145 412 -149 29 -5 39 -2 65 24 l30 30 0 727 0 726
-25 24 c-17 18 -34 25 -62 24 -23 0 -156 -45 -328 -110z"/>
<path d="M4666 7149 c-114 -27 -257 -140 -315 -249 -183 -343 58 -751 443
-750 151 1 263 45 362 144 229 229 192 606 -77 785 -86 58 -170 81 -283 80
-50 -1 -108 -5 -130 -10z"/>
<path d="M4350 6172 c-141 -96 -262 -243 -318 -389 -32 -83 -62 -220 -62 -284
l0 -39 823 2 822 3 -2 60 c-5 149 -82 351 -179 470 -54 65 -163 160 -217 190
-40 21 -39 21 -137 -41 -173 -110 -394 -104 -573 16 -41 28 -81 50 -88 50 -8
-1 -39 -18 -69 -38z"/>
<path d="M6930 4900 l0 -110 35 0 35 0 0 -415 0 -415 -35 0 -35 0 0 -110 0
-110 245 0 245 0 0 109 0 110 -47 3 -48 3 -3 523 -2 522 -195 0 -195 0 0 -110z"/>
<path d="M8770 4900 l0 -110 35 0 35 0 0 -415 0 -415 -35 0 -35 0 0 -110 0
-110 190 0 190 0 10 26 c6 14 13 24 18 22 115 -59 126 -62 217 -62 126 1 190
27 270 108 71 72 101 138 117 262 36 264 -116 481 -350 501 -75 6 -161 -13
-219 -49 l-33 -20 0 241 0 241 -205 0 -205 0 0 -110z m582 -567 c55 -60 75
-142 57 -246 -12 -74 -50 -132 -94 -143 -32 -8 -79 19 -103 59 -45 71 -48 230
-6 296 42 66 102 80 146 34z"/>
<path d="M6039 4916 c-84 -29 -140 -68 -215 -148 -113 -121 -167 -266 -166
-448 0 -192 50 -327 162 -441 106 -107 243 -160 420 -161 122 -1 182 13 295
67 84 41 220 142 220 164 0 6 -42 57 -94 115 l-95 104 -52 -52 c-113 -113
-231 -141 -331 -80 -93 57 -141 178 -130 329 13 191 113 312 233 285 73 -17
126 -81 139 -167 l6 -43 150 0 149 0 0 240 0 240 -132 0 -133 0 -19 -45 -18
-45 -38 34 c-84 76 -225 97 -351 52z"/>
<path d="M2290 4810 l0 -110 50 0 50 0 0 -365 0 -365 -50 0 -50 0 0 -115 0
-115 310 0 310 0 0 115 0 115 -85 0 -85 0 0 105 0 105 160 0 160 0 0 115 0
115 -160 0 -160 0 0 145 0 145 130 0 130 0 0 -75 0 -75 150 0 150 0 0 185 0
185 -505 0 -505 0 0 -110z"/>
<path d="M3685 4629 c-74 -9 -138 -30 -232 -76 l-72 -35 35 -95 c18 -53 34
-97 34 -99 0 -3 17 4 38 14 139 71 328 76 362 11 6 -10 10 -36 10 -58 l0 -40
-36 21 c-25 14 -59 23 -109 26 -205 13 -365 -119 -365 -303 0 -121 51 -199
162 -250 117 -54 258 -42 352 30 l45 34 20 -35 20 -34 181 0 180 0 0 110 0
110 -49 0 -49 0 -4 203 c-5 226 -14 265 -73 334 -81 95 -275 152 -450 132z
m155 -554 c14 -13 20 -31 20 -60 0 -35 -5 -46 -27 -60 -74 -49 -163 -19 -163
54 0 62 39 94 108 87 24 -2 52 -12 62 -21z"/>
<path d="M5050 4607 c-57 -16 -112 -49 -144 -88 -14 -16 -27 -29 -29 -29 -3 0
-13 23 -23 50 l-18 50 -178 0 -178 0 0 -110 0 -110 35 0 35 0 0 -205 0 -205
-35 0 -35 0 0 -110 0 -110 260 0 260 0 0 110 0 110 -60 0 -60 0 0 155 c0 167
7 198 52 229 29 20 77 20 105 1 37 -26 43 -77 43 -347 l0 -258 210 0 210 0 0
109 0 110 -37 3 -38 3 -6 215 c-6 240 -14 278 -74 347 -61 71 -196 108 -295
80z"/>
<path d="M7580 4475 l0 -115 34 0 34 0 4 -202 c4 -177 7 -210 25 -256 31 -78
66 -117 130 -149 53 -25 68 -28 163 -28 118 0 141 8 216 77 l43 39 22 -50 21
-51 159 0 159 0 0 115 0 115 -40 0 -40 0 0 310 0 310 -220 0 -220 0 0 -115 0
-115 56 0 55 0 -3 -164 -3 -165 -30 -31 c-25 -26 -36 -30 -69 -28 -81 6 -95
68 -96 406 l0 212 -200 0 -200 0 0 -115z"/>
</g>
</svg>
